# xmcd
#
# Track frame offsets:
#	150
#	18136
#	50543
#	75709
#	96959
#	116849
#	155130
#	177730
#
# Disc length: 2705 seconds
#
# Revision: 2
# Processed by: cddbd v1.5.2PL0 Copyright (c) Steve Scherf et al.
# Submitted via: EasyCDDAExtractor 16.0.6.1
#
DISCID=670a8f08
DTITLE=Eric Clapton - R-611 Just One Night CD 1
DYEAR=1980
DGENRE=Blues
TTITLE0=Tulsa Time
TTITLE1=Early In The Morning
TTITLE2=Lay Down Sally
TTITLE3=Wonderful Tonight
TTITLE4=If I Don't Be There By Morning
TTITLE5=Worried Life Blues
TTITLE6=All Our Past Times
TTITLE7=After Midnight
EXTD=
EXTT0=
EXTT1=
EXTT2=
EXTT3=
EXTT4=
EXTT5=
EXTT6=
EXTT7=
PLAYORDER=
